<?xml version="1.0" encoding="UTF-8" standalone="no"?>
<svg
   xmlns:dc="http://purl.org/dc/elements/1.1/"
   xmlns:cc="http://creativecommons.org/ns#"
   xmlns:rdf="http://www.w3.org/1999/02/22-rdf-syntax-ns#"
   xmlns:svg="http://www.w3.org/2000/svg"
   xmlns="http://www.w3.org/2000/svg"
   height="100"
   width="100"
   id="svg12"
   xml:space="preserve"
   enable-background="new 0 0 100 100"
   viewBox="0 0 100 100"
   y="0px"
   x="0px"
   version="1.1"><metadata
     id="metadata18"><rdf:RDF><cc:Work
         rdf:about=""><dc:format>image/svg+xml</dc:format><dc:type
           rdf:resource="http://purl.org/dc/dcmitype/StillImage" /><dc:title></dc:title></cc:Work></rdf:RDF></metadata><defs
     id="defs16" /><g
     style="stroke-width:0.90000176"
     transform="matrix(1.1111089,0,0,1.1111089,-5.5552531,-5.5531308)"
     id="g4498"><path
       d="m 94.802,46.747 c -2.696,-1.39 -5.53,-1.785 -7.899,-1.566 -1.662,0.154 -2.821,0.275 -3.316,-0.153 -4.438,-3.814 -18.346,-7.097 -29.399,-5.686 -6.516,0.974 -8.462,-1.709 -8.164,-3.977 0.103,-0.63 0.321,-1.221 0.636,-1.768 0.343,-0.594 0.112,-1.041 -0.457,-0.701 -2.726,1.631 -4.619,4.016 -5.121,6.899 -0.894,3.973 -0.206,5.403 -5.105,9.099 -7.606,6.444 -12.082,14.782 -12.694,22.247 l 0.021,-0.009 c -0.202,1.317 -0.004,2.349 0.652,2.686 0.004,0.002 0.01,0.001 0.014,0.003 -1.031,1.968 -1.321,3.716 -0.586,4.218 0.91,0.62 5.062,-3.723 7.488,-5.519 2.053,-1.52 4.152,-3.056 6.197,-4.544 1.851,0.429 3.737,0.43 5.573,-0.075 3.207,-0.884 5.759,-3.163 7.457,-6.284 0.175,-0.293 0,-0.422 -0.227,-0.239 -0.691,0.553 -1.46,0.969 -2.305,1.21 -1.032,0.295 -2.096,0.306 -3.155,0.094 4.077,-2.917 7.165,-5.087 7.978,-5.635 8.016,-5.597 13.206,-10.034 29.151,-8.723 0.652,2.01 2.321,4.675 5.726,5.982 0.286,0.11 0.514,-0.148 0.386,-0.429 -0.467,-1.026 -0.369,-2.48 0.264,-3.506 0.546,-0.886 -0.116,-1.516 -0.116,-1.516 0,0 0.801,0.407 2.083,-0.384 1.345,-0.83 2.952,-1.216 4.711,-1.201 0.41,0.003 0.56,-0.341 0.207,-0.523 z m -66.258,22.99 c -0.537,0.46 -1.229,0.536 -1.544,0.168 -0.316,-0.368 -0.136,-1.04 0.401,-1.5 0.537,-0.46 1.229,-0.536 1.544,-0.168 0.315,0.368 0.136,1.04 -0.401,1.5 z"
       id="path2"
       style="fill:#000000;fill-opacity:0.2;stroke-width:0.90000176" /><g
       id="g6"
       style="fill:#000000;fill-opacity:0.2;stroke-width:0.90000176"><path
         d="m 46.518,31.855 c 0.373,-0.165 0.811,-0.096 1.081,0.085 0.203,0.136 0.491,0.749 0.227,1.284 -0.132,0.267 -0.361,0.778 -0.547,1.228 2.736,-0.595 5.968,-0.933 9.944,-0.952 0.767,1.813 2.991,3.82 6.32,4.501 0.28,0.057 0.449,-0.215 0.289,-0.453 -0.586,-0.872 -0.718,-2.223 -0.293,-3.262 0.367,-0.897 -0.338,-1.376 -0.338,-1.376 0,0 0.798,0.252 1.856,-0.671 1.109,-0.968 2.527,-1.568 4.146,-1.824 0.377,-0.059 0.462,-0.398 0.11,-0.512 -2.69,-0.865 -5.355,-0.796 -7.498,-0.233 -1.504,0.395 -3.331,0.211 -5.461,-0.716 -5.757,-2.34 -16.6,-3.457 -25.243,-1.581 -5.968,1.431 -7.992,-0.902 -7.898,-3.031 0.045,-0.593 0.199,-1.159 0.448,-1.693 0.27,-0.579 0.02,-0.976 -0.481,-0.613 -2.398,1.734 -3.962,4.101 -4.195,6.817 -0.509,3.759 0.246,5.031 -4.002,8.857 C 8.446,44.307 4.965,52.407 5,59.385 l 0.019,-0.01 c -0.081,1.239 0.186,2.18 0.822,2.44 0.004,0.001 0.009,0.001 0.013,0.002 -0.798,1.91 -0.926,3.556 -0.203,3.962 0.895,0.502 4.397,-3.864 6.503,-5.727 1.782,-1.576 3.606,-3.172 5.384,-4.718 1.752,0.249 3.503,0.097 5.166,-0.52 2.905,-1.079 5.089,-3.401 6.413,-6.435 0.139,-0.286 -0.034,-0.391 -0.23,-0.204 -0.597,0.569 -1.277,1.017 -2.041,1.309 -0.934,0.357 -1.921,0.453 -2.921,0.342 4.262,-4.107 13.12,-10.982 17.031,-13.293 1.718,-2.4 2.273,-3.22 5.562,-4.678 z M 9.769,57.655 C 9.308,58.126 8.672,58.252 8.35,57.935 8.027,57.619 8.14,56.981 8.601,56.51 c 0.461,-0.471 1.097,-0.597 1.419,-0.28 0.322,0.317 0.21,0.955 -0.251,1.425 z"
         id="path4"
         style="fill:#000000;fill-opacity:0.2;stroke-width:0.90000176" /></g></g></svg>
