<?xml version="1.0" encoding="UTF-8" standalone="no"?>
<svg
   xmlns:dc="http://purl.org/dc/elements/1.1/"
   xmlns:cc="http://creativecommons.org/ns#"
   xmlns:rdf="http://www.w3.org/1999/02/22-rdf-syntax-ns#"
   xmlns:svg="http://www.w3.org/2000/svg"
   xmlns="http://www.w3.org/2000/svg"
   height="100"
   width="100"
   xml:space="preserve"
   enable-background="new 0 0 170.1 170.1"
   viewBox="0 0 99.999996 99.999996"
   y="0px"
   x="0px"
   id="Layer_1"
   version="1.1"><metadata
     id="metadata9"><rdf:RDF><cc:Work
         rdf:about=""><dc:format>image/svg+xml</dc:format><dc:type
           rdf:resource="http://purl.org/dc/dcmitype/StillImage" /><dc:title></dc:title></cc:Work></rdf:RDF></metadata><defs
     id="defs7" /><path
     style="stroke-width:0.94692093;fill-opacity:0.2"
     id="path2"
     d="m 92.328356,61.14864 c 0.0947,-3.314225 7.29129,-8.616982 7.67006,-20.73757 0.189384,-4.545221 -16.66581,19.980031 -17.23396,21.68449 -0.18939,0.66284 -3.03015,2.55669 -7.76475,3.03015 -3.12484,0 -0.56816,-6.912527 -1.51508,-6.912527 -3.21953,-0.189384 -5.01868,6.533757 -8.806361,5.397447 -2.840762,-1.04161 -5.965602,-2.65138 -9.279825,-5.113371 5.492142,0.189385 10.41613,-1.041613 9.090441,-2.367302 -4.54522,-4.54522 -9.090441,-7.007215 -13.256893,-8.901057 1.041613,-2.083226 2.177918,-3.503607 2.177918,-3.503607 -4.261144,-4.261144 -11.552435,1.704458 -16.002963,-4.54522 -0.473461,-0.662845 -0.946921,-1.32569 -1.420382,-2.083227 -1.041613,-1.515073 -2.27261,-2.840762 -3.314223,-4.071759 0,0 -19.317187,-23.3889466 -30.8696218,-20.548185 -3.977068,1.041613 -0.757537,14.866659 3.692991,25.377481 -0.852228,-3.882376 -1.420381,-7.954136 -0.94692,-9.658593 0.47346,-2.083226 5.4921408,-4.923989 8.2382118,-4.450529 5.113373,0.757537 13.540969,7.007215 13.540969,7.007215 0,0 -12.594048,-5.681525 -16.8551928,-1.893842 -8.61698004,7.575368 5.0186808,23.767716 5.0186808,23.767716 0,0 -0.189384,-0.189385 -0.47346,-0.568153 0.189384,0.284076 0.47346,0.568153 0.757537,0.852229 2.367302,3.503607 -3.030147,19.695954 1.325689,30.017394 0.757537,1.79915 10.226746,-19.03311 13.540969,-17.32865 h -0.09469 c 6.912523,4.63991 14.393198,8.14352 21.116337,10.13205 2.935454,1.04161 5.302757,12.30997 10.41613,12.0259 1.515073,-0.0947 0.378768,-8.90106 5.208058,-11.17367 h -0.0947 c 2.93546,-0.94692 5.39745,-2.08323 7.67006,-3.21953 2.93546,0.94692 7.76475,4.45053 10.51082,2.84076 0.94693,-0.56815 -3.59829,-5.11337 -1.32568,-8.14352 1.70445,-0.94692 2.84076,-1.32569 3.5036,-0.56815 2.08323,2.08322 11.17367,3.31422 12.59405,0.94692 0.47346,-1.04161 -6.91252,-3.97707 -6.81783,-7.29129 z M 39.679553,53.573271 c 2.935455,-1.704458 8.14352,0 15.340119,4.734604 -12.120588,0 -15.340119,-4.734604 -15.340119,-4.734604 z" /></svg>
