<?xml version="1.0" encoding="UTF-8" standalone="no"?>
<svg
   xmlns:dc="http://purl.org/dc/elements/1.1/"
   xmlns:cc="http://creativecommons.org/ns#"
   xmlns:rdf="http://www.w3.org/1999/02/22-rdf-syntax-ns#"
   xmlns:svg="http://www.w3.org/2000/svg"
   xmlns="http://www.w3.org/2000/svg"
   height="100"
   width="100"
   xml:space="preserve"
   enable-background="new 0 0 170.1 170.1"
   viewBox="0 0 99.999996 99.999996"
   y="0px"
   x="0px"
   id="Layer_1"
   version="1.1"><metadata
     id="metadata9"><rdf:RDF><cc:Work
         rdf:about=""><dc:format>image/svg+xml</dc:format><dc:type
           rdf:resource="http://purl.org/dc/dcmitype/StillImage" /><dc:title></dc:title></cc:Work></rdf:RDF></metadata><defs
     id="defs7" /><path
     style="stroke-width:0.97972864;fill-opacity:0.2"
     id="path2"
     d="m 16.888268,1.8098593 c 11.560798,-6.466209 21.260112,6.270263 23.219569,8.9155297 0.195946,0.293919 0.09797,0.489865 -0.293919,0.587838 -2.449321,0.195945 -11.364852,1.567565 -18.418898,8.327693 -0.391892,0.391892 -0.489865,0.391892 -0.783783,0 -4.996616,-7.054046 -4.702698,-14.3040377 -4.506752,-16.7533597 0.09797,-0.489864 0.587837,-0.979728 0.783783,-1.077701 z M 51.472689,11.999037 c 2.05743,0.489864 9.89526,2.645267 17.831064,9.60134 0.48986,0.391892 1.17567,0.293919 1.46959,0.293919 14.59796,-1.861484 21.94592,3.918915 24.39524,-0.68581 2.44933,-4.702698 -26.74659,-22.04389469 -43.597921,-9.797287 -0.489864,0.293919 -0.391891,0.489865 -0.09797,0.587838 z M 73.516583,80.286123 C 39.715946,90.279356 23.844341,70.292891 18.553807,54.813179 c 0.68581,-0.68581 1.37162,-1.371621 2.05743,-2.057431 0.68581,-0.587837 1.469593,-1.175674 2.253376,-1.665538 18.12498,-12.246608 6.662155,-25.472945 -3.429051,-22.337813 8.425667,-19.2026817 33.212802,-19.1047087 43.989817,-8.327694 8.817554,8.817558 17.831064,41.344549 10.091204,59.86142 z M 16.594349,44.036163 c 0,2.841214 0.587838,6.662155 2.057431,10.777016 -3.624996,3.918914 -5.976345,8.719585 -8.52364,13.422282 C 9.2463855,69.901 8.2666565,71.95843 6.6011175,73.036131 3.8578775,74.799643 2.7801755,71.27262 2.2903115,69.21519 0.62477248,62.553035 0.91869148,55.303043 2.4862575,50.208454 4.7396335,42.664543 9.6382765,36.198335 15.614621,31.005773 c 1.273647,-1.077702 2.645267,-1.763512 4.016887,-2.253376 -1.959457,4.11486 -3.037159,9.209449 -3.037159,15.283766 z m 65.837764,14.989849 c -0.19594,2.05743 -0.39189,10.385123 4.40878,16.165523 4.31081,5.192561 6.95607,8.91553 7.9358,10.189177 0.29392,0.391892 0.58784,0.391892 0.88176,0 1.46959,-1.861484 5.192557,-8.033774 1.76351,-19.398627 -2.05743,-6.956073 -12.05066,-7.54391 -14.40201,-7.54391 -0.29392,0.09797 -0.48987,0.195945 -0.58784,0.587837 z M 52.746337,85.576658 c 0.195945,3.331078 2.449321,17.243222 23.121596,13.912147 0.78378,-0.09797 0.97973,-0.391891 0.29392,-0.979729 -6.36824,-5.094589 -6.36824,-10.972961 -9.69932,-13.912146 -0.098,-0.09797 -0.48986,-0.293919 -0.881751,-0.195946 -1.665539,0.391891 -7.054046,1.37162 -12.148635,0.68581 -0.783783,-0.195946 -0.783783,0.09797 -0.68581,0.489864 z" /></svg>
