<?xml version="1.0" encoding="UTF-8" standalone="no"?>
<svg
   xmlns:dc="http://purl.org/dc/elements/1.1/"
   xmlns:cc="http://creativecommons.org/ns#"
   xmlns:rdf="http://www.w3.org/1999/02/22-rdf-syntax-ns#"
   xmlns:svg="http://www.w3.org/2000/svg"
   xmlns="http://www.w3.org/2000/svg"
   xml:space="preserve"
   enable-background="new 0 0 595.3 595.3"
   viewBox="0 0 100 43.253002"
   height="43.253002"
   width="100"
   y="0px"
   x="0px"
   id="Layer_1"
   version="1.1"><metadata
     id="metadata11"><rdf:RDF><cc:Work
         rdf:about=""><dc:format>image/svg+xml</dc:format><dc:type
           rdf:resource="http://purl.org/dc/dcmitype/StillImage" /><dc:title></dc:title></cc:Work></rdf:RDF></metadata><defs
     id="defs9" /><g
     style="fill:#000000;fill-opacity:0.2;stroke-width:4.34711123"
     id="g4"
     transform="matrix(0.23003781,0,0,0.23003781,-18.411761,-46.85281)"><path
       style="fill:#000000;fill-opacity:0.2;stroke-width:4.34711123"
       id="path2"
       d="m 485.7,241.4 c -4.3,-3.8 -9.8,-5.4 -15.7,-7.1 -3.8,-1.1 -7.8,-2.3 -11.6,-4.1 -5.3,-2.6 -9.8,-5.3 -14.2,-7.9 -6.7,-4 -13,-7.9 -21.7,-11 -43.5,-15.7 -71.1,-4.5 -106,9.7 -22.4,9.1 -47.7,19.4 -83.3,25.8 -48.3,8.7 -75.7,27.4 -82.2,32.2 h -32.3 c -2.4,0 -4.5,1.7 -4.9,4.1 -0.9,5 -9.1,13.3 -17.9,22.2 -4.5,4.6 -9.6,9.8 -14.6,15.4 -1.5,1.7 -1.7,4.3 -0.4,6.2 1.3,1.9 3.7,2.7 5.9,1.9 l 66.7,-25 c 38.6,-3.7 60.1,7.4 85,20.4 21.1,10.9 44.9,23.3 82.4,27.7 4.3,0.5 8.4,0.7 12.3,0.7 12.5,0 23.3,-2.2 32.9,-4.7 1.6,-1.7 3.7,-3.8 6.3,-6.4 4,-3.9 8.5,-8.4 9.7,-10.7 1,-1.9 1.2,-3.4 0.7,-4.3 -0.6,-1.1 -2.5,-1.4 -2.5,-1.4 -1.1,-0.1 -1.9,-1.1 -1.8,-2.2 0.1,-1.1 1.1,-1.9 2.2,-1.8 0.4,0 3.9,0.5 5.6,3.4 1.2,2.1 1,4.9 -0.7,8.1 -1.5,3 -5.9,7.3 -10.5,11.8 -1.8,1.8 -4.1,4.1 -6,6.1 -0.4,0.9 -0.5,1.8 -0.5,2.7 0,3.8 6.9,31.5 18.2,37.3 1.6,0.8 3.2,1.2 4.9,1.2 2.2,0 4.3,-0.7 6.3,-2.2 12.6,-9.1 23.3,-35.8 24.9,-49.4 0.2,-2.1 0.2,-4.5 0,-6.8 -3.8,-13.4 -14.5,-25.2 -14.6,-25.3 -0.7,-0.8 -0.7,-2.1 0.1,-2.8 0.8,-0.7 2.1,-0.7 2.8,0.1 0.5,0.6 9.9,10.9 14.5,23.8 3.4,-2.1 6.1,-4 8.2,-5.7 1.8,-6.9 1.6,-20.7 -0.8,-25.4 -0.5,-1 -0.1,-2.2 0.9,-2.7 1,-0.5 2.2,-0.1 2.7,0.9 2.4,5 3,16.9 1.6,25.1 2.5,0.7 6,1.6 11,2.4 2.7,-5.2 5.2,-16.3 3.6,-19.8 -0.4,-1 0,-2.2 1,-2.6 1,-0.5 2.2,0 2.6,1 2.1,4.6 -0.2,15.6 -3.2,22.1 5.1,0.7 14.8,1.9 21.2,1.2 13.1,-1.4 39.4,-19.3 40.2,-37.6 1.2,-17.7 -19.9,-38.5 -29,-46.6 z" /></g></svg>