<?xml version="1.0" encoding="UTF-8" standalone="no"?>
<svg
   xmlns:dc="http://purl.org/dc/elements/1.1/"
   xmlns:cc="http://creativecommons.org/ns#"
   xmlns:rdf="http://www.w3.org/1999/02/22-rdf-syntax-ns#"
   xmlns:svg="http://www.w3.org/2000/svg"
   xmlns="http://www.w3.org/2000/svg"
   version="1.1"
   id="svg2"
   xml:space="preserve"
   width="100"
   height="21.44187"
   viewBox="0 0 100.00001 21.441872"><metadata
     id="metadata8"><rdf:RDF><cc:Work
         rdf:about=""><dc:format>image/svg+xml</dc:format><dc:type
           rdf:resource="http://purl.org/dc/dcmitype/StillImage" /><dc:title></dc:title></cc:Work></rdf:RDF></metadata><defs
     id="defs6" /><g
     id="g10"
     transform="matrix(1.3333333,0,0,-1.3333333,-44.876949,751.76527)"
     style="display:inline"><path
       id="path18"
       style="display:inline;fill:#100f0d;fill-opacity:0.2;fill-rule:nonzero;stroke:none;stroke-width:0.00820613"
       d="m 108.20234,560.72226 c -0.11975,0.0797 -0.28621,-8e-5 -0.3421,-0.11745 -1.00586,-2.11255 -3.05322,-3.66898 -4.84986,-5.08558 -0.90277,-0.71177 -1.79746,-1.5089 -2.97077,-1.69414 -0.93643,-0.14779 -2.79446,-0.23108 -2.843198,-0.16636 -0.609204,0.80866 -1.104414,1.21391 -1.376387,2.28189 -0.382038,1.50087 -0.211143,3.02401 0.157,4.51093 0.02495,0.10073 -0.07887,0.20406 -0.177558,0.19758 -1.07971,-0.0711 -1.965202,-0.91506 -2.692668,-1.64093 -0.81121,-0.80929 -1.531424,-1.67558 -2.032728,-2.68847 -0.322165,-0.12015 -0.638619,-0.28646 -0.840204,-0.37157 -1.019612,-0.43043 -2.47318,-0.22724 -3.483746,0.14711 -0.97323,0.36056 -1.85823,0.98582 -2.898658,1.1429 -0.0023,3.3e-4 -0.0053,-5e-4 -0.0077,-3.3e-4 -0.465179,0.7998 -0.963349,1.58634 -1.320521,2.39241 -0.460824,1.04025 -0.367107,1.83033 -0.271486,2.93354 0.02983,0.34338 0.06813,0.85131 -0.22682,1.10221 -0.734435,0.62445 -2.045049,-0.77857 -2.505469,-1.15507 -1.444138,-1.18077 -2.961719,-2.35381 -4.218369,-3.7469 -2.701789,-0.004 -5.366997,-4.9e-4 -8.048782,-0.41638 -5.429615,-0.84198 -10.758863,-2.65903 -15.93156,-4.51846 -0.05229,1.6e-4 -0.104225,-6.6e-4 -0.154621,-0.003 -0.24234,-0.009 -0.484714,-0.0159 -0.727093,-0.0234 0.04617,0.10729 0.07952,0.1979 0.0896,0.25725 0.01041,0.0617 -0.09925,-0.0565 -0.255748,-0.26259 -0.260496,-0.008 -0.521028,-0.0142 -0.781544,-0.0197 0.05212,0.11718 0.08933,0.21522 0.09983,0.27728 0.01027,0.061 -0.105093,-0.0665 -0.265155,-0.28044 -0.255917,-0.005 -0.511873,-0.0105 -0.7678,-0.0135 0.07247,0.15431 0.124636,0.28355 0.137499,0.35958 0.01156,0.0683 -0.1341,-0.0989 -0.324169,-0.36056 -0.259085,-0.002 -0.518153,-0.004 -0.777287,-0.004 0.05289,0.11601 0.08969,0.21163 0.09972,0.27106 0.0094,0.0559 -0.10132,-0.0681 -0.25185,-0.27181 -0.261405,8e-5 -0.522783,0.003 -0.784097,0.005 0.07334,0.15264 0.126764,0.28118 0.139081,0.35405 0.01071,0.0629 -0.131162,-0.10254 -0.310341,-0.35267 -0.252328,0.003 -0.504528,0.006 -0.756793,0.0108 0.08185,0.1676 0.141442,0.30861 0.154651,0.38683 0.01111,0.0654 -0.142627,-0.11551 -0.332233,-0.38304 -0.22064,0.005 -0.441296,0.008 -0.661953,0.0141 0.08385,0.17102 0.144854,0.31483 0.158281,0.39432 0.01119,0.066 -0.144894,-0.11815 -0.336572,-0.38914 -0.270509,0.008 -0.541009,0.018 -0.811438,0.0281 0.05893,0.12376 0.101657,0.22783 0.111802,0.28789 0.0088,0.0523 -0.105187,-0.0796 -0.252165,-0.28308 -0.231429,0.009 -0.462774,0.0198 -0.694191,0.0305 0.05866,0.12275 0.101329,0.22594 0.111275,0.28503 0.0086,0.051 -0.10353,-0.079 -0.24733,-0.27849 -0.260678,0.0125 -0.521416,0.0247 -0.782001,0.0394 0.07018,0.14285 0.121094,0.26293 0.132372,0.32923 0.0092,0.0545 -0.119258,-0.0969 -0.277537,-0.32037 -0.255853,0.0148 -0.511607,0.0304 -0.767357,0.0471 0.0779,0.15622 0.13607,0.28968 0.148029,0.36054 0.0097,0.0569 -0.131143,-0.11144 -0.299029,-0.35126 -0.02337,0.002 -0.04667,0.003 -0.07011,0.004 -0.224455,0.0154 -0.44909,0.0301 -0.673684,0.0448 0.07965,0.14794 0.139528,0.27433 0.151942,0.34129 0.0099,0.0535 -0.132869,-0.10533 -0.302945,-0.33135 -0.24571,0.0161 -0.491484,0.0326 -0.73728,0.0495 0.07667,0.14309 0.133667,0.26479 0.145855,0.33001 0.0098,0.0525 -0.127907,-0.0998 -0.294274,-0.31962 -0.257078,0.0181 -0.514081,0.0373 -0.770846,0.0581 0.08357,0.15854 0.146946,0.29529 0.158969,0.36572 0.0095,0.0551 -0.139002,-0.11588 -0.311853,-0.35383 -0.248867,0.0209 -0.49753,0.0439 -0.745918,0.0691 0.08464,0.1603 0.148946,0.29872 0.161149,0.36982 0.0095,0.055 -0.1389,-0.11573 -0.311549,-0.35337 -0.246854,0.0259 -0.493203,0.0551 -0.739168,0.0871 0.05937,0.11577 0.102578,0.21311 0.112342,0.26726 0.008,0.0444 -0.098,-0.0738 -0.231439,-0.25169 -0.176795,0.0238 -0.353203,0.0497 -0.529486,0.0771 0.04979,0.0997 0.08591,0.18339 0.09462,0.23182 0.0074,0.0413 -0.08358,-0.0579 -0.203298,-0.21459 -0.0895,0.0144 -0.179273,0.0271 -0.268547,0.0425 -0.144484,0.0251 -0.276166,0.0439 -0.402025,0.06 0.04324,0.0869 0.07467,0.15985 0.08228,0.20215 0.0066,0.0364 -0.0739,-0.0514 -0.179742,-0.18991 -0.193553,0.0224 -0.366485,0.0357 -0.51715,0.0406 0.05688,0.10959 0.09871,0.20225 0.107817,0.25261 0.0074,0.0415 -0.09807,-0.0781 -0.225742,-0.25105 -0.704266,0.005 -0.910783,-0.16103 -0.910783,-0.16103 0,0 -0.169454,-0.14435 0.594061,-0.32912 -0.03881,-0.0724 -0.06993,-0.13968 -0.08703,-0.19475 -0.01405,-0.0453 0.02666,-0.0803 0.06501,-0.0946 0,0 0.06935,0.10949 0.159195,0.25783 0.126387,-0.0274 0.274101,-0.0554 0.445523,-0.084 -0.03561,-0.0676 -0.06451,-0.13067 -0.08066,-0.18263 -0.01398,-0.0452 0.02666,-0.0803 0.06501,-0.0946 0,0 0.06838,0.10789 0.157154,0.25447 0.06788,-0.0105 0.137738,-0.0211 0.212456,-0.0317 0.136723,-0.0195 0.271973,-0.0371 0.408174,-0.0559 -0.06198,-0.10846 -0.112198,-0.21023 -0.136903,-0.28987 -0.016,-0.0514 0.03015,-0.0913 0.07376,-0.10741 0,0 0.105088,0.16575 0.230068,0.37436 0.160613,-0.0218 0.32182,-0.0444 0.481757,-0.0653 -0.05386,-0.0968 -0.09698,-0.18685 -0.119351,-0.25889 -0.01595,-0.0515 0.03029,-0.0912 0.07384,-0.10737 0,0 0.09541,0.1505 0.212417,0.34503 0.231991,-0.0301 0.463665,-0.0598 0.694305,-0.0882 -0.05783,-0.10531 -0.103843,-0.20304 -0.127668,-0.28142 -0.01739,-0.0575 0.03581,-0.10108 0.08567,-0.11835 0,0 0.103307,0.16359 0.231208,0.37682 0.232909,-0.0282 0.464949,-0.0554 0.696548,-0.082 -0.05271,-0.0976 -0.09441,-0.18802 -0.116734,-0.26145 -0.01751,-0.0575 0.03577,-0.10102 0.08567,-0.11836 0,0 0.09706,0.15374 0.219781,0.35772 0.235019,-0.0266 0.468799,-0.0516 0.702733,-0.0767 -0.05326,-0.0959 -0.09575,-0.18472 -0.118871,-0.2571 -0.01829,-0.0573 0.03433,-0.10147 0.08401,-0.11941 0,0 0.09947,0.15285 0.225195,0.35573 0.22777,-0.0241 0.45462,-0.0469 0.681428,-0.0697 -0.04225,-0.0795 -0.07653,-0.15335 -0.09626,-0.21486 -0.01829,-0.0573 0.03433,-0.10147 0.08401,-0.11941 0,0 0.08667,0.13333 0.199979,0.3152 0.239882,-0.0237 0.479118,-0.0465 0.718078,-0.069 -0.04446,-0.0892 -0.08054,-0.17233 -0.100681,-0.241 -0.01796,-0.061 0.03456,-0.10844 0.08399,-0.12776 0,0 0.09002,0.14919 0.206335,0.35081 0.236942,-0.0219 0.473586,-0.0432 0.709842,-0.064 -0.04573,-0.0913 -0.08287,-0.17634 -0.103447,-0.24639 -0.01789,-0.0609 0.0347,-0.10836 0.08406,-0.12772 0,0 0.09186,0.15225 0.209991,0.35728 0.237822,-0.0207 0.475327,-0.0409 0.712615,-0.0607 -0.04886,-0.0962 -0.08812,-0.18562 -0.109681,-0.2589 -0.01796,-0.061 0.03459,-0.10833 0.08399,-0.12775 0,0 0.09585,0.15862 0.217789,0.37068 0.206609,-0.017 0.413024,-0.0338 0.619191,-0.0501 -0.05103,-0.10034 -0.09199,-0.19354 -0.114456,-0.26999 -0.01856,-0.0632 0.03582,-0.11227 0.08698,-0.13228 0,0 0.10005,0.16578 0.227163,0.38661 0.243465,-0.0191 0.48703,-0.038 0.730421,-0.0565 -0.0653,-0.12601 -0.117011,-0.24276 -0.144874,-0.33777 -0.02159,-0.0734 0.04166,-0.13059 0.101147,-0.15386 0,0 0.123926,0.20534 0.278054,0.47408 0.194628,-0.0146 0.389268,-0.0294 0.583873,-0.0436 -0.05644,-0.11199 -0.101953,-0.21616 -0.127099,-0.30193 -0.02166,-0.0734 0.04155,-0.13056 0.101107,-0.15379 0,0 0.113237,0.18743 0.257996,0.43891 0.223441,-0.0163 0.446882,-0.0325 0.670454,-0.0485 -0.05162,-0.10409 -0.09352,-0.20105 -0.117185,-0.28152 -0.02155,-0.0735 0.04173,-0.13055 0.10126,-0.15388 0,0 0.107435,0.1781 0.2465,0.4191 0.22571,-0.0161 0.451421,-0.0322 0.677556,-0.048 -0.05704,-0.1131 -0.103084,-0.21814 -0.128409,-0.30459 -0.02155,-0.0735 0.04162,-0.13051 0.101147,-0.15385 0,0 0.114064,0.18894 0.259753,0.4421 0.218754,-0.0154 0.43758,-0.0307 0.656671,-0.0461 -0.06985,-0.13669 -0.125864,-0.2637 -0.156366,-0.36744 -0.0247,-0.0841 0.04772,-0.14945 0.115863,-0.17606 0,0 0.136374,0.2258 0.30814,0.52471 0.209489,-0.0147 0.419162,-0.0295 0.629171,-0.0443 -0.07055,-0.13777 -0.126925,-0.26564 -0.157606,-0.37005 -0.02474,-0.084 0.04761,-0.14943 0.11575,-0.17603 0,0 0.137042,0.22694 0.309433,0.52706 0.204847,-0.0146 0.410072,-0.0293 0.61548,-0.044 -0.08463,-0.1618 -0.151646,-0.31193 -0.187382,-0.43319 -0.02656,-0.0904 0.05133,-0.16064 0.124634,-0.18929 0,0 0.158138,0.26196 0.352573,0.60153 0.289318,-0.0211 0.579013,-0.0423 0.869768,-0.064 0.934384,-0.53536 2.406236,-0.57951 3.44171,-0.62953 1.234843,-0.0597 2.434406,-0.47797 3.653168,-0.66606 2.772315,-0.42776 5.464262,-0.57074 8.146769,-1.4758 1.226731,-0.41395 2.466804,-0.75434 3.69862,-1.14706 0.66745,-0.21284 2.278223,-1.3115 2.693631,-0.69226 0.387078,0.57673 -0.09446,1.44262 0.63335,1.8884 1.13174,0.6933 3.333988,0.70821 4.510714,0.5381 0.0071,-0.002 0.0125,-0.004 0.02081,-0.005 0.0046,-4.1e-4 0.009,-5.8e-4 0.01362,-9.5e-4 0.373612,-0.0564 2.675876,-0.42156 2.868884,-0.51575 0.817322,-0.39873 1.50581,-1.00006 2.288913,-1.45409 0.532054,-0.30855 1.165558,-0.61982 1.795444,-0.4886 0.803056,0.16725 0.788084,2.24504 0.875056,2.28938 1.114594,0.56856 3.267687,0.6435 4.584177,0.66296 1.96944,0.0292 5.791234,0.14554 5.961742,0.19898 2.113121,0.66246 4.03008,-1.27179 5.891681,-2.03745 0.63823,-0.2625 2.15357,-1.05078 2.48286,0.0232 0.1304,0.42503 -0.0346,0.90664 -0.0442,1.3368 -0.0228,1.02195 0.70376,1.56671 1.38646,2.20978 0.83229,0.78394 1.60701,1.97203 1.89985,3.14068 0.35361,0.51685 0.50778,1.08619 0.67323,1.69425 0.22181,0.81523 0.98304,2.68744 0.047,3.31137" /></g></svg>