<?xml version="1.0" encoding="UTF-8" standalone="no"?>
<svg
   xmlns:dc="http://purl.org/dc/elements/1.1/"
   xmlns:cc="http://creativecommons.org/ns#"
   xmlns:rdf="http://www.w3.org/1999/02/22-rdf-syntax-ns#"
   xmlns:svg="http://www.w3.org/2000/svg"
   xmlns="http://www.w3.org/2000/svg"
   height="80.534828"
   width="100"
   xml:space="preserve"
   enable-background="new 0 0 170.1 170.1"
   viewBox="0 0 99.999996 80.534825"
   y="0px"
   x="0px"
   id="Layer_1"
   version="1.1"><metadata
     id="metadata17"><rdf:RDF><cc:Work
         rdf:about=""><dc:format>image/svg+xml</dc:format><dc:type
           rdf:resource="http://purl.org/dc/dcmitype/StillImage" /><dc:title></dc:title></cc:Work></rdf:RDF></metadata><defs
     id="defs15" /><path
     d="m 47.328083,43.309694 c -1.247802,-1.515188 -2.495603,-3.208633 -3.030376,-5.169465 0,0 0,0 0,0 -0.713029,0.980416 -1.515188,1.871703 -2.673861,2.406475 -2.673861,1.42606 -5.704237,1.604317 -8.734613,1.693446 -3.030376,0.08913 -6.060752,0.08913 -8.823742,1.158673 -4.812951,1.871703 -7.932455,6.506396 -10.695445,10.784574 -2.76299,4.278178 -5.9716243,8.199841 -8.2889707,12.745405 C 4.0115308,68.978762 -1.6035778,78.515534 0.44638248,80.298108 2.4963427,82.080682 8.2897088,73.25694 9.6266394,71.830881 13.102659,68.176604 16.846065,64.878842 20.767728,61.759337 c 3.297763,-2.584733 6.862911,-5.080336 10.962831,-5.971624 4.278178,-0.891287 8.734614,0 13.101921,-0.178257 3.921663,-0.178257 8.199841,-1.604317 10.160672,-4.81295 -2.495604,-1.960832 -5.258594,-4.545564 -7.665069,-7.486812 z"
     id="path2"
     style="fill-opacity:0.2;stroke-width:0.89128709" /><path
     id="path6"
     d="m 52.141034,37.338071 c -0.980416,-1.871703 -1.336931,-4.456435 -0.445644,-6.417267 0.623901,-1.426059 1.782574,-1.871703 3.030376,-2.317346 -0.356515,-0.267387 -0.71303,-0.445644 -1.069544,-0.623901 -1.604317,-0.802159 -3.47602,-1.158674 -5.258594,-1.158674 -0.891287,0 -1.871703,0.08913 -2.76299,0.267387 -0.445644,0.08913 -0.891287,0.178257 -1.336931,0.356514 -0.534772,0.178258 -0.713029,0.534773 -1.33693,0.267386 -0.623901,-0.356514 -1.247802,-0.6239 -1.871703,-0.980415 -1.247802,-0.623901 -2.495604,-1.336931 -3.743406,-2.049961 -0.356515,-0.178257 -0.802158,-0.445643 -1.069544,-0.08913 -0.178258,0.178257 -0.445644,0.267386 -0.356515,0.534772 0,0.178257 0.178257,0.267386 0.356515,0.356515 0.445643,0.178257 0.713029,0 1.069544,0.356515 0.356515,0.356514 0.802158,0.623901 1.158673,0.980415 0.802159,0.623901 1.515188,1.247802 2.317347,1.871703 1.604316,1.069545 2.673861,2.495604 3.208633,4.278178 0.178258,0.71303 0.445644,1.336931 0.71303,1.960832 0.802158,2.76299 2.76299,5.52598 4.189049,7.219425 2.673861,3.297762 5.882495,6.060752 9.180257,8.645485 2.941247,2.228218 4.902079,3.476019 5.882495,7.308554 0.802158,3.297762 0.623901,6.773782 1.069544,10.160673 0.178258,1.247802 1.069545,6.952039 1.960832,6.684653 0.980416,-0.267386 0.445643,-2.317347 0.534772,-3.297762 0.08913,-5.436852 0.267386,-9.893287 2.317346,-12.47802 2.049961,-2.584732 7.665069,-1.782574 13.280178,-0.802158 0.980416,0.178257 2.673861,0.71303 2.76299,-0.534772 0.08913,-1.069545 -6.328138,-3.921663 -7.754198,-4.456436 -4.010792,-1.426059 -8.28897,-2.228217 -11.586732,-4.991207 -1.426059,-1.158673 -2.04996,-2.495604 -2.76299,-3.921663 -4.634692,0.802158 -9.715029,-3.297763 -11.67586,-7.130297 z m 37.2558,-35.8297407 c -4.723822,1.069545 -9.358515,2.139089 -13.993208,3.208634 -3.208633,0.713029 -6.506395,1.515188 -9.358514,3.208633 -3.208633,1.960832 -3.386891,3.8325347 -4.099921,7.3085537 -0.891287,4.367307 -0.267386,11.05196 -5.436851,12.923663 -0.623901,0.178257 -1.247802,0.356515 -1.782574,0.534772 2.584733,1.782574 3.921663,4.902079 4.991208,7.843327 0.356515,0.980415 0.623901,1.960831 0.980416,2.941247 0.623901,1.604317 1.693445,2.852119 2.495603,4.367307 0.08913,0.267386 0.267387,0.534772 0.356515,0.713029 0,0 0.08913,0 0.08913,0 4.367307,-0.891287 5.615109,-10.695445 6.86291,-14.082336 1.336931,-3.921663 2.76299,-7.932455 5.258594,-11.230217 3.297762,-4.367306 7.219426,-6.506395 11.854118,-9.2693847 2.584733,-1.515188 5.080337,-3.030376 7.575941,-4.634693 1.158673,-0.71303 3.832534,-1.782574 4.456435,-3.030376 2.495604,-4.4564357 -9.002,-1.158674 -10.249801,-0.802159 z"
     style="fill-opacity:0.2;stroke-width:0.89128709" /></svg>