<?xml version="1.0" encoding="UTF-8" standalone="no"?>
<svg
   xmlns:dc="http://purl.org/dc/elements/1.1/"
   xmlns:cc="http://creativecommons.org/ns#"
   xmlns:rdf="http://www.w3.org/1999/02/22-rdf-syntax-ns#"
   xmlns:svg="http://www.w3.org/2000/svg"
   xmlns="http://www.w3.org/2000/svg"
   version="1.1"
   id="Layer_1"
   x="0px"
   y="0px"
   viewBox="0 0 88.082943 99.999996"
   enable-background="new 0 0 170.1 170.1"
   xml:space="preserve"
   width="88.082947"
   height="100"><metadata
     id="metadata15"><rdf:RDF><cc:Work
         rdf:about=""><dc:format>image/svg+xml</dc:format><dc:type
           rdf:resource="http://purl.org/dc/dcmitype/StillImage" /><dc:title></dc:title></cc:Work></rdf:RDF></metadata><defs
     id="defs13" /><path
     d="m 46.323118,83.682976 c -1.711177,-0.190131 -0.760523,-0.855588 -0.09506,-1.140784 8.936144,-4.373008 16.731505,-13.499283 31.656768,-15.970983 0.285196,-1.045719 0.570392,-2.091438 0.855588,-3.137157 1.23585,-4.943399 1.996373,-9.981864 2.281569,-15.020329 C 81.687441,38.812121 80.451591,28.545061 76.36378,19.513851 75.032865,16.471759 73.226623,13.334601 71.325315,10.577706 69.80427,8.2961368 67.522701,6.4898947 64.67074,6.3948293 c -2.091439,-0.095065 -3.612485,2.1865036 -3.137158,3.9927457 0.475327,1.996373 2.186504,3.802615 3.992746,4.658203 1.616111,0.760523 3.422353,1.23585 4.943399,2.091438 2.851961,1.521046 4.277942,5.038465 4.182876,8.175622 -0.09506,4.563138 -2.566765,9.03121 -4.943399,12.833825 -3.707549,5.989119 -8.365752,11.312779 -13.309152,16.351244 -6.55951,6.749641 -13.784479,12.833825 -20.914381,18.918009 -7.795361,6.749641 -12.833825,8.936145 -21.76997,11.788106 -3.042092,0.950654 -5.6088569,2.756896 -7.7002949,5.13353 -1.140785,1.330915 -2.3766347,2.756896 -3.5174191,4.087811 -0.6654576,0.760523 -1.2358498,1.616111 -1.99637281,2.281569 -0.5703922,0.570392 -0.760523,1.330915 0,1.711176 5.79898791,3.517422 11.02758281,0.380262 16.44630881,-1.806242 0.950654,-0.380261 1.996373,-0.760523 3.042092,-1.045719 6.939772,-1.901307 22.625558,0.855589 26.333108,1.045719 11.978237,0.665458 21.960101,-7.129902 24.146604,-9.03121 4.373007,-3.89768 7.129903,-7.985491 6.084184,-9.221341 -0.475327,-0.570392 -1.806242,-0.285196 -3.612484,0.570392 0,0 0,0 0,0 -6.559511,3.612485 -15.685786,6.084184 -26.618304,4.753269 z M 86.820966,65.905752 c -3.232223,-0.09507 -6.179249,0.19013 -8.936145,0.665457 -0.475327,1.616111 -0.950654,3.232223 -1.521046,4.848334 -0.475327,1.330915 -0.950654,2.66183 -1.521046,3.992746 -0.380261,0.855588 -0.855588,3.042092 -1.616111,3.612484 7.034837,-3.612484 11.883171,-8.175622 14.354871,-10.932518 1.140784,-1.23585 0.09506,-2.186503 -0.760523,-2.186503 z"
     id="path2"
     style="fill-opacity:0.2;stroke-width:0.95065373" /><path
     d="m 77.599625,19.228654 c 0,0 -5.703922,-10.362125 0.380261,-17.1117664 5.038465,-5.7039222 11.122649,1.521046 6.274315,5.2285954 -7.415099,5.703922 -6.654576,11.883171 -6.654576,11.883171 z"
     id="path4"
     style="fill-opacity:0.2;stroke-width:0.95065373" /></svg>