<?xml version="1.0" encoding="UTF-8" standalone="no"?>
<svg
   xmlns:dc="http://purl.org/dc/elements/1.1/"
   xmlns:cc="http://creativecommons.org/ns#"
   xmlns:rdf="http://www.w3.org/1999/02/22-rdf-syntax-ns#"
   xmlns:svg="http://www.w3.org/2000/svg"
   xmlns="http://www.w3.org/2000/svg"
   height="34.508453"
   width="100"
   id="svg10"
   xml:space="preserve"
   enable-background="new 0 0 100 100"
   viewBox="0 0 100 34.508453"
   y="0px"
   x="0px"
   version="1.1"><metadata
     id="metadata16"><rdf:RDF><cc:Work
         rdf:about=""><dc:format>image/svg+xml</dc:format><dc:type
           rdf:resource="http://purl.org/dc/dcmitype/StillImage" /><dc:title></dc:title></cc:Work></rdf:RDF></metadata><defs
     id="defs14" /><g
     transform="matrix(1.0433711,0,0,1.0433668,-2.1675948,-34.915475)"
     style="fill:#000000;fill-opacity:0.2;stroke-width:0.95843369"
     id="g4"><path
       style="fill:#000000;fill-opacity:0.2;stroke-width:0.95843369"
       id="path2"
       d="M 78.533,55.664 C 77.913,55.589 76.372,51.852 74.769,48.748 73.483,46.256 72.086,44.084 72.06,43.743 71.966,42.552 72.609,42.472 71.562,41.914 70.514,41.355 58.777,35.971 56.968,35.249 49.752,32.37 35.601,33.746 32.951,34.132 c -2.631,0.383 -10.336,2.267 -11.729,3.072 -1.818,1.052 -7.998,3.737 -9.896,4.653 -1.802,0.87 -8.551,3.028 -8.778,5.221 l 0.032,0.004 c 0.007,-0.002 -0.033,0.122 0.023,0.301 0.033,0.09 0.09,0.193 0.199,0.284 0.107,0.091 0.252,0.171 0.427,0.238 0.353,0.128 0.815,0.205 1.349,0.247 0.536,0.037 1.145,0.038 1.81,0.011 0.333,-0.016 0.679,-0.034 1.038,-0.065 0.358,-0.024 0.729,-0.06 1.109,-0.1 0.761,-0.083 1.563,-0.181 2.392,-0.295 0.83,-0.107 1.687,-0.235 2.556,-0.373 0.875,-0.133 1.752,-0.29 2.632,-0.455 0.879,-0.169 1.756,-0.35 2.618,-0.538 0.862,-0.188 1.707,-0.385 2.523,-0.584 0.817,-0.196 1.604,-0.399 2.353,-0.586 0.748,-0.188 1.455,-0.368 2.111,-0.524 0.329,-0.077 0.645,-0.148 0.949,-0.207 0.153,-0.027 0.303,-0.051 0.449,-0.071 0.076,-0.004 0.149,-0.01 0.223,-0.015 0.082,-0.007 0.143,0.006 0.214,0.008 0.286,0.025 0.544,0.109 0.758,0.227 0.215,0.119 0.388,0.263 0.528,0.405 0.28,0.286 0.451,0.548 0.569,0.723 0.115,0.177 0.176,0.271 0.176,0.271 l -0.053,0.036 c 0,0 -0.064,-0.092 -0.185,-0.265 -0.123,-0.169 -0.302,-0.421 -0.582,-0.688 -0.14,-0.132 -0.311,-0.263 -0.514,-0.365 -0.203,-0.104 -0.447,-0.172 -0.706,-0.187 -0.065,10e-4 -0.143,-0.009 -0.203,0 -0.067,0.007 -0.135,0.014 -0.204,0.021 -0.139,0.024 -0.285,0.051 -0.433,0.084 -0.296,0.068 -0.607,0.149 -0.931,0.238 -0.647,0.179 -1.347,0.384 -2.089,0.598 -0.741,0.215 -1.525,0.433 -2.339,0.654 -0.813,0.221 -1.656,0.44 -2.516,0.652 -0.86,0.213 -1.736,0.418 -2.615,0.61 -0.878,0.194 -1.765,0.376 -2.63,0.545 -0.871,0.176 -1.732,0.316 -2.569,0.44 C 10.179,48.471 9.364,48.56 8.588,48.609 8.2,48.634 7.822,48.655 7.456,48.666 7.089,48.677 6.735,48.676 6.394,48.671 5.713,48.66 5.086,48.606 4.535,48.52 4.26,48.471 4.003,48.42 3.768,48.352 3.534,48.281 3.322,48.205 3.139,48.108 2.956,48.012 2.802,47.904 2.689,47.782 2.574,47.662 2.516,47.522 2.495,47.41 2.485,47.354 2.48,47.304 2.486,47.26 c 0,-0.016 10e-4,-0.028 0.002,-0.04 -1.148,0.608 0.259,3.294 2.398,3.738 3.322,0.69 9.117,0.704 12.776,1.535 4.059,0.923 8.338,1.118 10.578,1.117 1.212,0.198 1.368,1.623 2.649,1.611 0.488,-0.004 0.187,-1.257 0.269,-1.613 0.537,0 6.596,-0.479 8.907,-0.619 0.005,-0.084 0.013,-0.178 0.021,-0.285 0.027,-0.345 0.069,-0.793 0.073,-1.242 0.006,-0.446 -0.034,-0.893 -0.153,-1.202 -0.058,-0.156 -0.137,-0.271 -0.205,-0.343 -0.067,-0.071 -0.12,-0.098 -0.118,-0.101 -10e-4,0.003 0.056,0.017 0.14,0.076 0.084,0.056 0.196,0.159 0.293,0.311 0.199,0.3 0.344,0.761 0.438,1.219 0.097,0.46 0.155,0.924 0.202,1.263 0.014,0.103 0.027,0.192 0.039,0.27 0.029,-0.002 0.056,-0.003 0.077,-0.003 0.088,1.324 3.964,6.464 5.335,6.735 0.863,0.17 -1.012,-6.095 -1.386,-7.123 0.019,0 0.039,0 0.058,0 -0.011,-0.026 -0.023,-0.054 -0.034,-0.083 -0.131,-0.312 -0.315,-0.734 -0.477,-1.166 -0.162,-0.433 -0.301,-0.88 -0.334,-1.232 -0.007,-0.087 -0.011,-0.169 -0.004,-0.24 0.004,-0.071 0.019,-0.134 0.033,-0.183 0.018,-0.048 0.033,-0.084 0.049,-0.105 0.015,-0.022 0.023,-0.034 0.023,-0.034 0,0 -0.005,0.014 -0.015,0.037 -0.011,0.024 -0.018,0.063 -0.024,0.11 -0.004,0.048 -0.004,0.106 0.007,0.173 0.008,0.065 0.028,0.14 0.052,0.218 0.103,0.314 0.324,0.704 0.568,1.078 0.244,0.375 0.509,0.739 0.707,1.02 0.099,0.141 0.181,0.26 0.24,0.35 0.014,0.022 0.026,0.041 0.037,0.06 11.359,-0.016 15.697,-0.978 16.357,-0.839 0.668,0.141 7.331,2.528 9.146,4.607 -6.096,2.09 -8.957,5.945 -7.96,8.1 0.269,0.58 1.534,-1.399 3.491,-1.536 2.023,-0.143 5.854,-0.262 8.098,-0.698 1.681,-0.327 3.771,-1.047 4.26,-1.257 0.488,-0.21 1.605,1.116 3.77,1.605 2.165,0.489 9.02,1.174 11.271,2.102 1.406,0.579 3.749,2.13 3.776,1.855 0.147,-1.487 -3.111,-8.854 -19.383,-10.842 z M 32.665,46.307 c -0.16,0.214 -0.384,0.332 -0.631,0.332 -0.304,0 -0.581,-0.181 -0.705,-0.461 l -0.061,-0.139 0.097,-0.113 c 0.135,-0.158 0.343,-0.244 0.584,-0.244 0.27,0 0.617,0.119 0.739,0.382 l 0.061,0.129 z" /></g></svg>