<?xml version="1.0" encoding="UTF-8" standalone="no"?>
<svg
   xmlns:dc="http://purl.org/dc/elements/1.1/"
   xmlns:cc="http://creativecommons.org/ns#"
   xmlns:rdf="http://www.w3.org/1999/02/22-rdf-syntax-ns#"
   xmlns:svg="http://www.w3.org/2000/svg"
   xmlns="http://www.w3.org/2000/svg"
   version="1.1"
   id="Layer_1"
   x="0px"
   y="0px"
   viewBox="0 0 99.999996 68.330838"
   enable-background="new 0 0 170.1 170.1"
   xml:space="preserve"
   width="100"
   height="68.330841"><metadata
     id="metadata9"><rdf:RDF><cc:Work
         rdf:about=""><dc:format>image/svg+xml</dc:format><dc:type
           rdf:resource="http://purl.org/dc/dcmitype/StillImage" /><dc:title></dc:title></cc:Work></rdf:RDF></metadata><defs
     id="defs7" /><path
     d="m 99.00096,0 c -4.5292,0.683652 -14.69852,10.340234 -19.14226,10.340234 -3.93099,0 -15.980359,13.074844 -24.95329,26.3206 -14.014864,20.680474 -35.208074,10.682064 -41.190028,5.811044 -1.794586,-1.452763 -2.734608,-0.598198 -1.965499,0.68365 3.760085,6.32378 17.51858,25.03875 44.010092,16.57856 3.503716,-1.11094 6.494693,-2.47824 9.229301,-4.10191 -0.427283,-2.39279 -0.683652,-4.5292 -0.769109,-6.06741 -0.598195,-11.194804 5.640128,-16.40765 8.203823,-17.945867 0.598196,-0.427283 0.940021,-0.25637 0.854565,0.427282 -0.427282,2.820064 -1.538217,11.365715 -2.478238,19.569535 6.494693,-5.38376 10.767513,-12.13482 14.613063,-18.544057 0,0 12.64756,-15.723995 14.44214,-26.320599 C 100.45372,2.90552 99.00096,0 99.00096,0 Z M 68.834818,67.937908 c 0.512738,0.5982 0.854564,0.5982 0.854564,-0.59819 -0.08546,-3.16189 0.427283,-9.40022 1.196391,-15.89491 -1.794586,1.45276 -3.760085,2.90552 -5.896497,4.10191 0.769108,4.95648 2.221868,10.51115 3.845542,12.39119 z m 14.783972,-2.47824 c -0.76911,0.94002 -1.02548,0.5982 -1.11093,-0.51274 -0.68366,-13.1603 -3.58918,-18.54405 -3.58918,-18.54405 0,0 5.21285,-6.836524 7.09289,-10.682066 0,0.08546 1.9655,24.526016 -2.39278,29.738856 z M 22.944683,24.355099 c 0.08546,0 0.170913,0.08546 0.256369,0.08546 -0.341826,0.940021 -0.598195,1.880043 -1.025477,2.734607 -0.769109,1.367304 -1.794587,2.478239 -2.990978,3.41826 -1.025477,0.769108 -2.221868,1.367304 -3.247346,2.050956 -1.196391,0.854565 -2.307325,1.794586 -3.16189,3.076433 -0.427283,0.598196 -0.683652,1.196391 -0.940022,1.880043 -0.170913,0.512739 -0.170913,1.196391 -0.427282,1.623673 -0.170913,0.341826 -0.512739,0.512739 -0.854565,0.427283 -0.256369,-0.08546 -0.427282,-0.427283 -0.512739,-0.683652 -0.8545657,-2.050956 -1.6236737,-4.016455 -2.8200647,-5.896498 -0.854565,-1.281847 -1.880043,-2.050956 -3.076434,-3.076433 -1.623673,-1.281848 -2.990977,-2.820065 -3.76008507,-4.785564 -0.769109,-1.880043 -0.25637,-3.67463 0.427282,-5.469216 0.08546,0 0.08546,0 0.170913,0 0.08546,0.170913 0.08546,0.256369 0.17091307,0.427282 0.170913,0.940022 0.683652,1.452761 1.623673,1.70913 1.196391,0.341826 2.392782,0.598196 3.589173,0.940023 2.050956,0.598195 3.6746297,1.794586 4.6146507,3.760085 0,0.08546 0.08546,0.08546 0.170913,0.170913 0.854565,-0.940021 1.880043,-1.538217 3.076434,-1.880043 1.196391,-0.341826 2.392782,-0.341826 3.589173,0.08546 0.512738,0.170913 1.025477,0.341826 1.538216,0.427282 1.367304,0.512739 2.478239,-0.170913 3.589173,-1.025478 z"
     id="path2"
     style="fill-opacity:0.2;stroke-width:0.85456491" /></svg>